<svg id="_0040_surfing" data-name="0040_surfing" xmlns="http://www.w3.org/2000/svg" xmlns:xlink="http://www.w3.org/1999/xlink" viewBox="0 0 500 500" data-imageid="surfing-88" imageName="Surfing" class="illustrations_image" style="width: 189px;"><defs><style>.cls-1_surfing-88{fill:#01b1c8;}.cls-2_surfing-88{fill:#60eaea;}.cls-3_surfing-88{fill:#008caf;}.cls-4_surfing-88{fill:url(#linear-gradient);}.cls-5_surfing-88{fill:url(#linear-gradient-2-surfing-88);}.cls-6_surfing-88{fill:#68e1fd;}.cls-10_surfing-88,.cls-7_surfing-88{fill:#41311a;}.cls-7_surfing-88{isolation:isolate;opacity:0.41;}.cls-8_surfing-88{fill:#fffcff;}.cls-9_surfing-88{fill:url(#linear-gradient-3-surfing-88);}.cls-11_surfing-88{fill:#f8c6af;}</style><linearGradient id="linear-gradient-surfing-88" x1="223.05" y1="1406.52" x2="214.69" y2="1672.24" gradientTransform="matrix(1, 0, 0, -1, 0, 1686.58)" gradientUnits="userSpaceOnUse"><stop offset="0" stop-color="#4d4d4d" stop-opacity="0"/><stop offset="0.41" stop-color="#344b51" stop-opacity="0.41"/><stop offset="0.98" stop-color="#114956"/></linearGradient><linearGradient id="linear-gradient-2-surfing-88" x1="134.64" y1="1300.33" x2="255.38" y2="1430.37" gradientTransform="matrix(1, 0, 0, -1, 0, 1686.58)" gradientUnits="userSpaceOnUse"><stop offset="0" stop-color="gray" stop-opacity="0"/><stop offset="1" stop-color="#0071bc"/></linearGradient><linearGradient id="linear-gradient-3-surfing-88" x1="180.35" y1="1344.11" x2="237.34" y2="1433.22" xlink:href="#linear-gradient-2-surfing-88"/></defs><path id="base_surfing-88" class="cls-1_surfing-88" d="M76.28,301.38,30.14,328.92a8.43,8.43,0,0,0,.1,14.55L230.12,458.83a22.57,22.57,0,0,0,22.59,0L464.41,336.6a11.18,11.18,0,0,0,0-19.36L258.53,198.42"/><g id="wave_surfing-88"><path class="cls-2_surfing-88" d="M356.63,108.26c3.55-9,.33-19.74-7.76-26.18-8.87-7.1-25.7-9.85-36.49-4.24a26.85,26.85,0,0,0-14.2-21.07c-13.11-6.85-28-3.42-39.38,5.06h0c.12-8.16-3.12-15.56-13-17.75-12.6-2.8-26.23,3.43-35.1,12.16a18.81,18.81,0,0,0-3.21-7.77c-4.23-5.63-12.18-8-18.89-8.72-7.1-.71-14.91.66-20.51,5.33-4.28,3.55-6.94,9-9.23,14.36-2.47,4.81-4.14,9.31-7.48,10.64-8.41,3.31-6.53-7.1-25.52,7.33s-12.3,24-30,38.85-19.62,48.67-19.53,49.4L289,169.53a66.46,66.46,0,0,1,19.35-40.35l26.26,12.75s-7.75,29.3,13.21,33.56,26.14-3.67,30.31-38.28C380.59,117.17,367.81,110.41,356.63,108.26Zm-30.49,8.54-12.09,7.4A57.82,57.82,0,0,1,326.14,116.8Z"/><path class="cls-1_surfing-88" d="M354.51,279.12c-35.76-13.77-46.87-71.35-44.68-94.21s21.74-44.83,38-37.09,0,27.63,0,27.67c7.95-9.71,13.51-20.85,8.68-33.46-4.33-11.32-14.2-18.45-26-20.78-2-.39-24.67-4.61-23.59-6.35,0,0-25,40.82-24.26,87.3,3,20.21,6.3,35.74,6.3,35.74a109.66,109.66,0,0,1-6.3-35.74c-4-27.12-7.56-62.69-1.93-80.58A49.92,49.92,0,0,1,252,130.27s-38.43,16.06-28.74,60.78a106.77,106.77,0,0,1-7.09-81.1c-15.45-5.63-23.63,10.29-34.7,20.34A96.54,96.54,0,0,0,170.06,206c14.68,58.2,36.7,68.4,36.7,68.4s-68.89-21.55-73-68.4a248.42,248.42,0,0,1,7.17-83.29c-1.88-1.9-3.78-3.83-5.71-5.7C115.91,137.14,62.42,209.14,123,341c0,0-54-40.06-60.73-115a129.93,129.93,0,0,1,1.91-36.29C51,252.67,68.17,311,116.64,364.24c60.45,66.43,208.8,39.84,208.8,39.84C413.92,395,390.28,292.89,354.51,279.12Z"/><path class="cls-1_surfing-88" d="M79.55,142.32a260,260,0,0,0-12,33.86c9.68-32.8,29.32-58.28,41.09-71.42C99.85,107.18,90.3,117.58,79.55,142.32Z"/><path class="cls-3_surfing-88" d="M64.23,189.83q1.42-6.78,3.34-13.65A138.05,138.05,0,0,0,64.23,189.83Z"/><path class="cls-3_surfing-88" d="M62.3,226.12c6.7,74.94,60.73,115,60.73,115-60.65-131.9-7.1-203.9,12.16-224-8.35-8.11-17-14.91-26.63-12.3C96.8,117.9,77.17,143.38,67.48,176.18q-1.91,6.85-3.34,13.65A129.92,129.92,0,0,0,62.3,226.12Z"/><path class="cls-3_surfing-88" d="M133.68,206c4.11,46.85,73,68.4,73,68.4s-22-10.2-36.7-68.4a96.58,96.58,0,0,1,11.55-75.68c-5.32,4.87-11.39,8.36-19.27,7.37-7.21-.91-14.2-7.67-21.3-14.89A248.18,248.18,0,0,0,133.68,206Z"/><path class="cls-3_surfing-88" d="M223.3,191.05c-9.63-44.7,28.77-60.8,28.77-60.8-32.87,0-8.64-7.35-33.45-19.31-.76-.36-1.54-.69-2.33-1A106.78,106.78,0,0,0,223.3,191.05Z"/><path class="cls-3_surfing-88" d="M282.72,202.18C282,155.72,307,114.88,307,114.88c-10.55-6.19-16.37.35-26.22,6.73C275.16,139.5,278.7,175.06,282.72,202.18Z"/><path class="cls-3_surfing-88" d="M282.72,202.18A110,110,0,0,0,289,237.93S285.74,222.4,282.72,202.18Z"/><path class="cls-4_surfing-88" d="M354.51,279.12c-35.76-13.77-46.87-71.35-44.68-94.21s21.74-44.83,38-37.09,0,27.63,0,27.67c7.95-9.71,13.51-20.85,8.68-33.46-4.33-11.32-14.2-18.45-26-20.78-2-.39-24.67-4.61-23.59-6.35,0,0-25,40.82-24.26,87.3,3,20.21,6.3,35.74,6.3,35.74a109.66,109.66,0,0,1-6.3-35.74c-4-27.12-7.56-62.69-1.93-80.58A49.92,49.92,0,0,1,252,130.27s-38.43,16.06-28.74,60.78a106.77,106.77,0,0,1-7.09-81.1c-15.45-5.63-23.63,10.29-34.7,20.34A96.54,96.54,0,0,0,170.06,206c14.68,58.2,36.7,68.4,36.7,68.4s-68.89-21.55-73-68.4a248.42,248.42,0,0,1,7.17-83.29c-1.88-1.9-3.78-3.83-5.71-5.7C115.91,137.14,62.42,209.14,123,341c0,0-54-40.06-60.73-115a129.93,129.93,0,0,1,1.91-36.29C51,252.67,68.17,311,116.64,364.24c60.45,66.43,208.8,39.84,208.8,39.84C413.92,395,390.28,292.89,354.51,279.12Z"/><path class="cls-1_surfing-88" d="M59.9,160S37,125.07,50.47,123.77,50.19,143.45,59.9,160Z"/><path class="cls-1_surfing-88" d="M69.38,126.79a42.67,42.67,0,0,1,11.67-16.38c7.1-6.21,15.52-10.08,20.31-17.22a7.73,7.73,0,0,0-.59-3.32,8.64,8.64,0,0,0-10.93-4.45,16.23,16.23,0,0,0-6.27,4.22c-5.62-2.87,17-19.7,1.44-25.7C69.78,58.05,66.8,87.16,66.89,105.42A101.3,101.3,0,0,0,67.58,118C67.76,119.14,68.74,123.2,69.38,126.79Z"/><path class="cls-2_surfing-88" d="M355.21,399.66c-3.84.57-109.7-24.72-175.23-84.28,0,0,46.59,62.31,85.85,75.89C330.57,413.75,355.21,399.66,355.21,399.66Z"/><path class="cls-2_surfing-88" d="M379.17,385.84c8.11-4.95,5.85-3.37,21.88-12.64-17-3.41-84.66-15-151.19-79.51,0,0,12.21,68,115.89,99.6Z"/><path class="cls-2_surfing-88" d="M456.21,341.22s-104.16-22-142.71-60.7c0,0,53.35,59.23,110.36,79.37"/><path class="cls-2_surfing-88" d="M180,315.4s29.59,93,119.64,116.4c0,0,34.43-19.52,54.45-31.37,0,0-62.42-5-88.17-23.73"/></g><path id="Shadow_1_surfing-88" data-name="Shadow #1" class="cls-5_surfing-88" d="M157.64,417.06,292.52,307.73l-165,23.71-58.7,34.22C79.87,372.49,146.63,409.94,157.64,417.06Z"/><g id="Surfboard_surfing-88"><path class="cls-3_surfing-88" d="M326.12,256.9l-4.49,23.62s-68.28,66.73-98.38,79.37-82.17,24.49-87.35,20.82-5.51-12.3-5.51-12.3"/><path class="cls-6_surfing-88 targetColor" d="M326.12,256.9,295,238.19c-35.79,14.63-71.41,30-106.06,47.23-29.55,14.75-52.62,30.92-64.16,62.95-2,5.49-7.2,18.05-2.55,23.48,5.91,6.89,67.6-.57,105-27.61S326.12,256.9,326.12,256.9Z" style="fill: rgb(104, 225, 253);"/><path class="cls-7_surfing-88" d="M326.12,256.9,295,238.19c-35.79,14.63-71.41,30-106.06,47.23-29.55,14.75-52.62,30.92-64.16,62.95-2,5.49-7.2,18.05-2.55,23.48,5.91,6.89,67.6-.57,105-27.61S326.12,256.9,326.12,256.9Z"/><path class="cls-6_surfing-88 targetColor" d="M326.12,251.17,295,232.46c-35.79,14.62-71.41,30-106.06,47.23-29.55,14.66-52.62,30.91-64.16,62.95-2,5.48-7.2,18.05-2.55,23.48,5.91,6.89,67.6-.57,105-27.62S326.12,251.17,326.12,251.17Z" style="fill: rgb(104, 225, 253);"/><path class="cls-8_surfing-88" d="M278.32,238.19s-23.07,32.37-5.06,62.3l-12.42,10.95s-9.23-45.06,10.21-69Z"/><path class="cls-8_surfing-88" d="M189,279.69l-29.14,86,22.91-5.82s16-56.12,17.45-85.65Z"/></g><path id="Shadow_2_surfing-88" data-name="Shadow #2" class="cls-9_surfing-88" d="M163.25,359.89l90.23-65.53-21.75-12.19L135.2,346.85C146.42,353.66,152.31,352.77,163.25,359.89Z"/><g id="Character_surfing-88"><path class="cls-10_surfing-88" d="M189.25,201.12s-11.49,8.23-7.87,22.31,18.11,30.17,18.11,30.17-8.34,14.48-9.41,20.9-3.87,28.15-3.87,28.15,6.35,2.82,10.65-1.61c0,0,19.15-37,20.36-45.45s-10.83-27.76-10.83-27.76,18.07,12.86,21.69,14.48-2.82,33.72,0,35.39,10.45,4.42,13.68.8,6.44-41.43,2.42-46.25-30.51-30.48-30.51-30.48"/><path class="cls-6_surfing-88 targetColor" d="M206.32,160a90.13,90.13,0,0,0-20.94,5.84c-8.88,4.1-23.08,11.84-22.08,18.21s12.3,19.13,12.3,19.13l7.74-2L178,185.84s13-7.67,13.67-4.3S183.87,207,183.87,207s20.11-2.48,29.67-5.22c0,0,7.23-25.73,10.44-26.87a30.23,30.23,0,0,1,19.61.46c8.2,3.2,30.74,8.44,30.74,8.44l1.77-7.1s-17.3-7.78-33.47-14.2A68.45,68.45,0,0,0,211,158.42" style="fill: rgb(104, 225, 253);"/><path class="cls-10_surfing-88" d="M198.35,151.32a9.32,9.32,0,0,1,0-10.07c3.41-5.09,10.35-4.1,11.91-3.67s11,5.52,10.2,11.46-8.27,12-8.27,12"/><path class="cls-11_surfing-88" d="M197.64,146.51c-.39-1.28,1.42,18.12,10.65,16.72a9.19,9.19,0,0,0,6.14-5.54s1.78-4.67,0-5.52-2.13,1.13-2.13,1.13-.28-3.67-2.7-4.24S198.92,150.61,197.64,146.51Z"/><path class="cls-10_surfing-88" d="M210.26,137.58s-1.78-6.66,0-6.94,3,5.09,3,5.09,2.7-7.5,4.95-7.22,0,7.65,0,7.65,4.24-7.1,6.09-6.37-2,6.51-2,6.51,8.22,1.14,7.79,2.42-5.94,1.13-5.94,1.13,5,3,4.38,4.67-4.67-.57-5.09-1.56,3.55,4.68,2,6.16-4-3.55-4-3.55,1.56,5,.28,6.08-3.42-4.11-3.42-4.11"/><path class="cls-11_surfing-88" d="M195.21,301s5.64,8.06,9.78,11,4.83,2.77,3.21,5.06-9.42,3.44-12.65,1.15-10.35-8.52-10.12-10.65,1.26-9,1.26-9"/><path class="cls-11_surfing-88" d="M238.09,279.35s5.64,8.06,9.78,11,4.82,2.77,3.21,5.06-9.42,3.44-12.65,1.15-10.35-8.52-10.12-10.65,1.26-9,1.26-9"/><path class="cls-11_surfing-88" d="M175.58,203.18s-3.18,6.86-2.8,11.71,6.31,6.9,8.09,6,2.15-8.73,2.15-8.73.92,5,2.41,3.87-2.09-14.87-2.09-14.87"/><path class="cls-11_surfing-88" d="M276.23,176.77s5.8,1.15,8.39,0a53.33,53.33,0,0,1,13.21-2.83c4.47-.31,4,3,1.61,3s-8.13,1.3-9.07,3.15-3.16,5.59-7.43,5.59-10.65-3.07-10.65-3.07"/></g></svg>